<svg xmlns="http://www.w3.org/2000/svg" viewBox="0 0 540.00 360.00" width="540" height="360"><rect width="540.00" height="360.00" rx="0" fill="#FAE36B"/><g opacity="0.9"><path d="M39.643 30.082L32.020 63.118A4.447 4.447 0 0 0 40.686 65.118L48.310 32.082A4.447 4.447 0 0 0 39.643 30.082Z" fill="#151716"/><path d="M58.702 30.082L51.079 63.118A4.447 4.447 0 0 0 59.745 65.118L67.368 32.082A4.447 4.447 0 0 0 58.702 30.082Z" fill="#151716"/></g><g opacity="0.28"><path d="M129.643 30.082L122.020 63.118A4.447 4.447 0 0 0 130.686 65.118L138.310 32.082A4.447 4.447 0 0 0 129.643 30.082Z" fill="#151716"/><path d="M148.702 30.082L141.079 63.118A4.447 4.447 0 0 0 149.745 65.118L157.368 32.082A4.447 4.447 0 0 0 148.702 30.082Z" fill="#151716"/></g><g opacity="0.28"><path d="M219.643 30.082L212.020 63.118A4.447 4.447 0 0 0 220.686 65.118L228.310 32.082A4.447 4.447 0 0 0 219.643 30.082Z" fill="#151716"/><path d="M238.702 30.082L231.079 63.118A4.447 4.447 0 0 0 239.745 65.118L247.368 32.082A4.447 4.447 0 0 0 238.702 30.082Z" fill="#151716"/></g><g opacity="0.9"><path d="M309.643 30.082L302.020 63.118A4.447 4.447 0 0 0 310.686 65.118L318.310 32.082A4.447 4.447 0 0 0 309.643 30.082Z" fill="#151716"/><path d="M328.702 30.082L321.079 63.118A4.447 4.447 0 0 0 329.745 65.118L337.368 32.082A4.447 4.447 0 0 0 328.702 30.082Z" fill="#151716"/></g><g opacity="0.28"><path d="M399.643 30.082L392.020 63.118A4.447 4.447 0 0 0 400.686 65.118L408.310 32.082A4.447 4.447 0 0 0 399.643 30.082Z" fill="#151716"/><path d="M418.702 30.082L411.079 63.118A4.447 4.447 0 0 0 419.745 65.118L427.368 32.082A4.447 4.447 0 0 0 418.702 30.082Z" fill="#151716"/></g><g opacity="0.28"><path d="M489.643 30.082L482.020 63.118A4.447 4.447 0 0 0 490.686 65.118L498.310 32.082A4.447 4.447 0 0 0 489.643 30.082Z" fill="#151716"/><path d="M508.702 30.082L501.079 63.118A4.447 4.447 0 0 0 509.745 65.118L517.368 32.082A4.447 4.447 0 0 0 508.702 30.082Z" fill="#151716"/></g><g opacity="0.9"><path d="M39.643 120.082L32.020 153.118A4.447 4.447 0 0 0 40.686 155.118L48.310 122.082A4.447 4.447 0 0 0 39.643 120.082Z" fill="#151716"/><path d="M58.702 120.082L51.079 153.118A4.447 4.447 0 0 0 59.745 155.118L67.368 122.082A4.447 4.447 0 0 0 58.702 120.082Z" fill="#151716"/></g><g opacity="0.28"><path d="M129.643 120.082L122.020 153.118A4.447 4.447 0 0 0 130.686 155.118L138.310 122.082A4.447 4.447 0 0 0 129.643 120.082Z" fill="#151716"/><path d="M148.702 120.082L141.079 153.118A4.447 4.447 0 0 0 149.745 155.118L157.368 122.082A4.447 4.447 0 0 0 148.702 120.082Z" fill="#151716"/></g><g opacity="0.28"><path d="M219.643 120.082L212.020 153.118A4.447 4.447 0 0 0 220.686 155.118L228.310 122.082A4.447 4.447 0 0 0 219.643 120.082Z" fill="#151716"/><path d="M238.702 120.082L231.079 153.118A4.447 4.447 0 0 0 239.745 155.118L247.368 122.082A4.447 4.447 0 0 0 238.702 120.082Z" fill="#151716"/></g><g opacity="0.9"><path d="M309.643 120.082L302.020 153.118A4.447 4.447 0 0 0 310.686 155.118L318.310 122.082A4.447 4.447 0 0 0 309.643 120.082Z" fill="#151716"/><path d="M328.702 120.082L321.079 153.118A4.447 4.447 0 0 0 329.745 155.118L337.368 122.082A4.447 4.447 0 0 0 328.702 120.082Z" fill="#151716"/></g><g opacity="0.28"><path d="M399.643 120.082L392.020 153.118A4.447 4.447 0 0 0 400.686 155.118L408.310 122.082A4.447 4.447 0 0 0 399.643 120.082Z" fill="#151716"/><path d="M418.702 120.082L411.079 153.118A4.447 4.447 0 0 0 419.745 155.118L427.368 122.082A4.447 4.447 0 0 0 418.702 120.082Z" fill="#151716"/></g><g opacity="0.28"><path d="M489.643 120.082L482.020 153.118A4.447 4.447 0 0 0 490.686 155.118L498.310 122.082A4.447 4.447 0 0 0 489.643 120.082Z" fill="#151716"/><path d="M508.702 120.082L501.079 153.118A4.447 4.447 0 0 0 509.745 155.118L517.368 122.082A4.447 4.447 0 0 0 508.702 120.082Z" fill="#151716"/></g><g opacity="0.9"><path d="M39.643 210.082L32.020 243.118A4.447 4.447 0 0 0 40.686 245.118L48.310 212.082A4.447 4.447 0 0 0 39.643 210.082Z" fill="#151716"/><path d="M58.702 210.082L51.079 243.118A4.447 4.447 0 0 0 59.745 245.118L67.368 212.082A4.447 4.447 0 0 0 58.702 210.082Z" fill="#151716"/></g><g opacity="0.28"><path d="M129.643 210.082L122.020 243.118A4.447 4.447 0 0 0 130.686 245.118L138.310 212.082A4.447 4.447 0 0 0 129.643 210.082Z" fill="#151716"/><path d="M148.702 210.082L141.079 243.118A4.447 4.447 0 0 0 149.745 245.118L157.368 212.082A4.447 4.447 0 0 0 148.702 210.082Z" fill="#151716"/></g><g opacity="0.28"><path d="M219.643 210.082L212.020 243.118A4.447 4.447 0 0 0 220.686 245.118L228.310 212.082A4.447 4.447 0 0 0 219.643 210.082Z" fill="#151716"/><path d="M238.702 210.082L231.079 243.118A4.447 4.447 0 0 0 239.745 245.118L247.368 212.082A4.447 4.447 0 0 0 238.702 210.082Z" fill="#151716"/></g><g opacity="0.9"><path d="M309.643 210.082L302.020 243.118A4.447 4.447 0 0 0 310.686 245.118L318.310 212.082A4.447 4.447 0 0 0 309.643 210.082Z" fill="#151716"/><path d="M328.702 210.082L321.079 243.118A4.447 4.447 0 0 0 329.745 245.118L337.368 212.082A4.447 4.447 0 0 0 328.702 210.082Z" fill="#151716"/></g><g opacity="0.28"><path d="M399.643 210.082L392.020 243.118A4.447 4.447 0 0 0 400.686 245.118L408.310 212.082A4.447 4.447 0 0 0 399.643 210.082Z" fill="#151716"/><path d="M418.702 210.082L411.079 243.118A4.447 4.447 0 0 0 419.745 245.118L427.368 212.082A4.447 4.447 0 0 0 418.702 210.082Z" fill="#151716"/></g><g opacity="0.28"><path d="M489.643 210.082L482.020 243.118A4.447 4.447 0 0 0 490.686 245.118L498.310 212.082A4.447 4.447 0 0 0 489.643 210.082Z" fill="#151716"/><path d="M508.702 210.082L501.079 243.118A4.447 4.447 0 0 0 509.745 245.118L517.368 212.082A4.447 4.447 0 0 0 508.702 210.082Z" fill="#151716"/></g><g opacity="0.9"><path d="M39.643 300.082L32.020 333.118A4.447 4.447 0 0 0 40.686 335.118L48.310 302.082A4.447 4.447 0 0 0 39.643 300.082Z" fill="#151716"/><path d="M58.702 300.082L51.079 333.118A4.447 4.447 0 0 0 59.745 335.118L67.368 302.082A4.447 4.447 0 0 0 58.702 300.082Z" fill="#151716"/></g><g opacity="0.28"><path d="M129.643 300.082L122.020 333.118A4.447 4.447 0 0 0 130.686 335.118L138.310 302.082A4.447 4.447 0 0 0 129.643 300.082Z" fill="#151716"/><path d="M148.702 300.082L141.079 333.118A4.447 4.447 0 0 0 149.745 335.118L157.368 302.082A4.447 4.447 0 0 0 148.702 300.082Z" fill="#151716"/></g><g opacity="0.28"><path d="M219.643 300.082L212.020 333.118A4.447 4.447 0 0 0 220.686 335.118L228.310 302.082A4.447 4.447 0 0 0 219.643 300.082Z" fill="#151716"/><path d="M238.702 300.082L231.079 333.118A4.447 4.447 0 0 0 239.745 335.118L247.368 302.082A4.447 4.447 0 0 0 238.702 300.082Z" fill="#151716"/></g><g opacity="0.9"><path d="M309.643 300.082L302.020 333.118A4.447 4.447 0 0 0 310.686 335.118L318.310 302.082A4.447 4.447 0 0 0 309.643 300.082Z" fill="#151716"/><path d="M328.702 300.082L321.079 333.118A4.447 4.447 0 0 0 329.745 335.118L337.368 302.082A4.447 4.447 0 0 0 328.702 300.082Z" fill="#151716"/></g><g opacity="0.28"><path d="M399.643 300.082L392.020 333.118A4.447 4.447 0 0 0 400.686 335.118L408.310 302.082A4.447 4.447 0 0 0 399.643 300.082Z" fill="#151716"/><path d="M418.702 300.082L411.079 333.118A4.447 4.447 0 0 0 419.745 335.118L427.368 302.082A4.447 4.447 0 0 0 418.702 300.082Z" fill="#151716"/></g><g opacity="0.28"><path d="M489.643 300.082L482.020 333.118A4.447 4.447 0 0 0 490.686 335.118L498.310 302.082A4.447 4.447 0 0 0 489.643 300.082Z" fill="#151716"/><path d="M508.702 300.082L501.079 333.118A4.447 4.447 0 0 0 509.745 335.118L517.368 302.082A4.447 4.447 0 0 0 508.702 300.082Z" fill="#151716"/></g></svg>